<svg width="182" height="27" viewBox="0 0 182 27" fill="none" xmlns="http://www.w3.org/2000/svg">
<path d="M2.54545 5.72727H5.09091V8.27273H7.63636V10.8182H5.09091V15.9091H7.63636V18.4545H5.09091V26.0909H2.54545V5.72727ZM7.63636 5.72727H12.7273V8.27273H7.63636V5.72727ZM12.7273 8.27273H15.2727V18.4545H12.7273V8.27273ZM7.63636 18.4545H12.7273V21H7.63636V18.4545ZM31.0645 8.27273H25.9736V5.72727H33.6099V18.4545H38.7009V21H25.9736V18.4545H31.0645V8.27273ZM31.0645 0.636363H33.6099V3.18182H31.0645V0.636363ZM51.9472 0.636363H54.4926V5.72727H62.129V8.27273H54.4926V18.4545H51.9472V8.27273H49.4017V5.72727H51.9472V0.636363ZM54.4926 18.4545H59.5835V21H54.4926V18.4545ZM59.5835 15.9091H62.129V18.4545H59.5835V15.9091ZM75.3753 5.72727H83.0117V8.27273H75.3753V5.72727ZM72.8298 8.27273H75.3753V18.4545H72.8298V8.27273ZM75.3753 18.4545H83.0117V21H75.3753V18.4545ZM83.0117 8.27273H85.5571V10.8182H83.0117V8.27273ZM83.0117 15.9091H85.5571V18.4545H83.0117V15.9091ZM96.258 0.636363H98.8034V8.27273H101.349V10.8182H98.8034V21H96.258V0.636363ZM106.44 8.27273H108.985V21H106.44V8.27273ZM101.349 5.72727H106.44V8.27273H101.349V5.72727ZM124.777 3.18182H119.686V0.636363H127.322V18.4545H132.413V21H119.686V18.4545H124.777V3.18182ZM143.114 13.3636H145.66V18.4545H143.114V13.3636ZM145.66 18.4545H150.751V21H145.66V18.4545ZM150.751 15.9091H153.296V13.3636H145.66V10.8182H153.296V8.27273H155.841V21H153.296V18.4545H150.751V15.9091ZM145.66 5.72727H153.296V8.27273H145.66V5.72727ZM166.542 0.636363H169.088V8.27273H171.633V10.8182H169.088V15.9091H171.633V18.4545H169.088V21H166.542V0.636363ZM171.633 18.4545H176.724V21H171.633V18.4545ZM176.724 8.27273H179.27V18.4545H176.724V8.27273ZM171.633 5.72727H176.724V8.27273H171.633V5.72727Z" fill="#2C2C2C"/>
</svg>
